<?xml version="1.0" encoding="utf-8"?>
<!-- Generator: Adobe Illustrator 24.0.3, SVG Export Plug-In . SVG Version: 6.00 Build 0)  -->
<!DOCTYPE svg PUBLIC "-//W3C//DTD SVG 1.1//EN" "http://www.w3.org/Graphics/SVG/1.1/DTD/svg11.dtd" [
	<!ENTITY ns_extend "http://ns.adobe.com/Extensibility/1.0/">
	<!ENTITY ns_ai "http://ns.adobe.com/AdobeIllustrator/10.0/">
	<!ENTITY ns_graphs "http://ns.adobe.com/Graphs/1.0/">
	<!ENTITY ns_vars "http://ns.adobe.com/Variables/1.0/">
	<!ENTITY ns_imrep "http://ns.adobe.com/ImageReplacement/1.0/">
	<!ENTITY ns_sfw "http://ns.adobe.com/SaveForWeb/1.0/">
	<!ENTITY ns_custom "http://ns.adobe.com/GenericCustomNamespace/1.0/">
	<!ENTITY ns_adobe_xpath "http://ns.adobe.com/XPath/1.0/">
]>
<svg version="1.1" id="Слой_1" xmlns:x="&ns_extend;" xmlns:i="&ns_ai;" xmlns:graph="&ns_graphs;"
	 xmlns="http://www.w3.org/2000/svg" xmlns:xlink="http://www.w3.org/1999/xlink" x="0px" y="0px" viewBox="0 0 151 152"
	 style="enable-background:new 0 0 151 152;" xml:space="preserve">
<style type="text/css">
	.st0{fill:#53381D;}
	.st1{fill:#996633;}
	.st2{fill:#CA9560;}
	.st3{fill:#AF753B;}
	.st4{fill:#647272;}
	.st5{fill:url(#SVGID_1_);}
	.st6{fill-rule:evenodd;clip-rule:evenodd;fill:#FFFFFF;}
	.st7{fill-rule:evenodd;clip-rule:evenodd;fill:#FFFFFF;fill-opacity:0.2;}
	.st8{fill:#FFFFFF;}
	.st9{fill-rule:evenodd;clip-rule:evenodd;fill:url(#SVGID_2_);}
	.st10{clip-path:url(#SVGID_4_);}
	.st11{fill-rule:evenodd;clip-rule:evenodd;fill:url(#SVGID_5_);fill-opacity:0;}
	.st12{fill-rule:evenodd;clip-rule:evenodd;fill:url(#SVGID_6_);fill-opacity:4.706000e-02;}
	.st13{fill-rule:evenodd;clip-rule:evenodd;fill:url(#SVGID_7_);fill-opacity:9.412000e-02;}
	.st14{fill-rule:evenodd;clip-rule:evenodd;fill:url(#SVGID_8_);fill-opacity:0.1412;}
	.st15{fill-rule:evenodd;clip-rule:evenodd;fill:url(#SVGID_9_);fill-opacity:0.1922;}
	.st16{fill-rule:evenodd;clip-rule:evenodd;fill:url(#SVGID_10_);fill-opacity:0.2392;}
	.st17{fill-rule:evenodd;clip-rule:evenodd;fill:url(#SVGID_11_);fill-opacity:0.2863;}
	.st18{fill-rule:evenodd;clip-rule:evenodd;fill:url(#SVGID_12_);fill-opacity:0.3333;}
	.st19{fill-rule:evenodd;clip-rule:evenodd;fill:url(#SVGID_13_);fill-opacity:0.3804;}
	.st20{fill-rule:evenodd;clip-rule:evenodd;fill:url(#SVGID_14_);fill-opacity:0.4275;}
	.st21{fill-rule:evenodd;clip-rule:evenodd;fill:url(#SVGID_15_);fill-opacity:0.4745;}
	.st22{fill-rule:evenodd;clip-rule:evenodd;fill:url(#SVGID_16_);fill-opacity:0.5255;}
	.st23{fill-rule:evenodd;clip-rule:evenodd;fill:url(#SVGID_17_);fill-opacity:0.5725;}
	.st24{fill-rule:evenodd;clip-rule:evenodd;fill:url(#SVGID_18_);fill-opacity:0.6196;}
	.st25{fill-rule:evenodd;clip-rule:evenodd;fill:url(#SVGID_19_);fill-opacity:0.6667;}
	.st26{fill-rule:evenodd;clip-rule:evenodd;fill:url(#SVGID_20_);fill-opacity:0.7137;}
	.st27{fill-rule:evenodd;clip-rule:evenodd;fill:url(#SVGID_21_);fill-opacity:0.7608;}
	.st28{fill-rule:evenodd;clip-rule:evenodd;fill:url(#SVGID_22_);fill-opacity:0.8078;}
	.st29{fill-rule:evenodd;clip-rule:evenodd;fill:url(#SVGID_23_);fill-opacity:0.8588;}
	.st30{fill-rule:evenodd;clip-rule:evenodd;fill:url(#SVGID_24_);fill-opacity:0.9059;}
	.st31{fill-rule:evenodd;clip-rule:evenodd;fill:url(#SVGID_25_);fill-opacity:0.9529;}
	.st32{fill:#E2E2E2;}
	.st33{fill:none;}
	.st34{fill-rule:evenodd;clip-rule:evenodd;fill:#FFFFFF;fill-opacity:0.302;}
	.st35{fill-rule:evenodd;clip-rule:evenodd;fill:#788A8A;}
	.st36{fill-rule:evenodd;clip-rule:evenodd;fill:#53381D;}
	.st37{fill-rule:evenodd;clip-rule:evenodd;fill:#996633;}
	.st38{fill-rule:evenodd;clip-rule:evenodd;fill:#CA9560;}
	.st39{fill-rule:evenodd;clip-rule:evenodd;fill:#AF753B;}
	.st40{fill-rule:evenodd;clip-rule:evenodd;fill:#647272;}
	.st41{fill-rule:evenodd;clip-rule:evenodd;fill:url(#SVGID_26_);}
</style>
<metadata>
	<sfw  xmlns="&ns_sfw;">
		<slices></slices>
		<sliceSourceBounds  bottomLeftOrigin="true" height="152" width="151" x="0" y="0"></sliceSourceBounds>
	</sfw>
</metadata>
<title>ButtonSVG</title>
<g id="_903140752">
	<path class="st0" d="M34,6h84c17.1,0,31,13.9,31,31v84c0,17.1-13.9,31-31,31H34c-17.1,0-31-13.9-31-31V37C3,19.9,16.9,6,34,6z"/>
	<path class="st1" d="M34,0h84c17.1,0,31,13.9,31,31v84c0,17.1-13.9,31-31,31H34c-17.1,0-31-13.9-31-31V31C3,13.9,16.9,0,34,0z"/>
	<path class="st2" d="M35,2h81c16.6,0,30,13.4,30,30v81c0,16.6-13.4,30-30,30H35c-16.6,0-30-13.4-30-30V32C5,15.4,18.4,2,35,2z"/>
	<path class="st3" d="M36,3h80c16.6,0,30,13.4,30,30v80c0,16.6-13.4,30-30,30H36c-16.6,0-30-13.4-30-30V33C6,16.4,19.4,3,36,3z"/>
	<path class="st0" d="M38,7h75c15.5,0,28,12.5,28,28v75c0,15.5-12.5,28-28,28H38c-15.5,0-28-12.5-28-28V35C10,19.5,22.5,7,38,7z"/>
	<path class="st4" d="M39,9h73c14.9,0,27,12.1,27,27v73c0,14.9-12.1,27-27,27H39c-14.9,0-27-12.1-27-27V36C12,21.1,24.1,9,39,9z"/>
	
		<radialGradient id="SVGID_1_" cx="75.5" cy="725" r="46.9185" gradientTransform="matrix(1 0 0 1 0 -652.5)" gradientUnits="userSpaceOnUse">
		<stop  offset="0" style="stop-color:#CFE2E2"/>
		<stop  offset="0.851" style="stop-color:#A3B6B6"/>
		<stop  offset="1" style="stop-color:#788A8A"/>
	</radialGradient>
	<path class="st5" d="M40,11h71c14.4,0,26,11.6,26,26v71c0,14.4-11.6,26-26,26H40c-14.4,0-26-11.6-26-26V37C14,22.6,25.6,11,40,11z"
		/>
	<polygon class="st6" points="89,129 105,125 97,121 83,123 72,125 	"/>
	<path class="st7" d="M111,12c13,0,24,10,25,24L75,73L18,23c-2,4-4,9-4,14l61,36L24,17c4.7-3.3,10.3-5,16-5l35,61L111,12z"/>
	<path class="st8" d="M45,16h61c13.2-0.1,23.9,10.6,24,23.8c0,0.1,0,0.1,0,0.2v61c0.1,13.2-10.6,23.9-23.8,24c-0.1,0-0.1,0-0.2,0H45
		c-13.2,0.1-23.9-10.6-24-23.8c0-0.1,0-0.1,0-0.2V40c-0.1-13.2,10.6-23.9,23.8-24C44.9,16,44.9,16,45,16z M106,18H45c-6,0-12,2-16,6
		s-6,10-6,16v61c0,6,2,12,6,16s10,6,16,6h61c6,0,12-2,16-6s6-10,6-16V40c0-6-2-12-6-16S112,18,106,18z"/>
	
		<radialGradient id="SVGID_2_" cx="75.5" cy="552.9407" r="53.4466" gradientTransform="matrix(1 0 0 1 0 -652.4976)" gradientUnits="userSpaceOnUse">
		<stop  offset="0" style="stop-color:#E2E2E2"/>
		<stop  offset="1" style="stop-color:#CFE2E2"/>
	</radialGradient>
	<path class="st9" d="M45,17h61c12.5-0.2,22.8,9.8,23,22.3c0,0.2,0,0.5,0,0.7v61c0.2,12.5-9.8,22.8-22.3,23c-0.2,0-0.5,0-0.7,0H45
		c-12.5,0.2-22.8-9.8-23-22.3c0-0.2,0-0.5,0-0.7V40c-0.2-12.5,9.8-22.8,22.3-23C44.5,17,44.8,17,45,17z"/>
	<g>
		<defs>
			<path id="SVGID_3_" d="M45,17h61c12.7,0,23,10.3,23,23v61c0,12.7-10.3,23-23,23H45c-12.7,0-23-10.3-23-23V40
				C22,27.3,32.3,17,45,17z"/>
		</defs>
		<clipPath id="SVGID_4_">
			<use xlink:href="#SVGID_3_"  style="overflow:visible;"/>
		</clipPath>
		<g class="st10">
			
				<linearGradient id="SVGID_5_" gradientUnits="userSpaceOnUse" x1="75.5" y1="756.0601" x2="75.5" y2="723.74" gradientTransform="matrix(1 0 0 1 0 -652.5)">
				<stop  offset="0" style="stop-color:#CFE2E2"/>
				<stop  offset="1" style="stop-color:#E2E2E2"/>
			</linearGradient>
			<path class="st11" d="M75,96c35,0,63,11,63,25s-28,25-63,25c-34,0-62-11-62-25S41,96,75,96z"/>
			
				<linearGradient id="SVGID_6_" gradientUnits="userSpaceOnUse" x1="75.5" y1="756.6201" x2="75.5" y2="725.3301" gradientTransform="matrix(1 0 0 1 0 -652.5)">
				<stop  offset="0" style="stop-color:#D0E2E2"/>
				<stop  offset="1" style="stop-color:#E2E2E2"/>
			</linearGradient>
			<path class="st12" d="M75,97c34,0,61,11,61,24c0,14-27,25-61,25c-33,0-60-11-60-25C15,108,42,97,75,97z"/>
			
				<linearGradient id="SVGID_7_" gradientUnits="userSpaceOnUse" x1="75.5" y1="757.1799" x2="75.5" y2="726.9199" gradientTransform="matrix(1 0 0 1 0 -652.5)">
				<stop  offset="0" style="stop-color:#D1E2E2"/>
				<stop  offset="1" style="stop-color:#E2E2E2"/>
			</linearGradient>
			<path class="st13" d="M75,98c33,0,59,10,59,23s-26,24-59,24c-32,0-58-11-58-24S43,98,75,98z"/>
			
				<linearGradient id="SVGID_8_" gradientUnits="userSpaceOnUse" x1="75.5" y1="757.75" x2="75.5" y2="728.51" gradientTransform="matrix(1 0 0 1 0 -652.5)">
				<stop  offset="0" style="stop-color:#D2E2E2"/>
				<stop  offset="1" style="stop-color:#E2E2E2"/>
			</linearGradient>
			<path class="st14" d="M75,99c31,0,57,10,57,22c0,13-26,23-57,23s-56-10-56-23C19,109,44,99,75,99z"/>
			
				<linearGradient id="SVGID_9_" gradientUnits="userSpaceOnUse" x1="75.5" y1="758.3101" x2="75.5" y2="730.1001" gradientTransform="matrix(1 0 0 1 0 -652.5)">
				<stop  offset="0" style="stop-color:#D3E2E2"/>
				<stop  offset="1" style="stop-color:#E2E2E2"/>
			</linearGradient>
			<path class="st15" d="M75,99c30,0,55,10,55,22s-25,22-55,22s-54-10-54-22S45,99,75,99z"/>
			
				<linearGradient id="SVGID_10_" gradientUnits="userSpaceOnUse" x1="75.5" y1="758.8799" x2="75.5" y2="731.7" gradientTransform="matrix(1 0 0 1 0 -652.5)">
				<stop  offset="0" style="stop-color:#D4E2E2"/>
				<stop  offset="1" style="stop-color:#E2E2E2"/>
			</linearGradient>
			<path class="st16" d="M75,100c29,0,53,10,53,21c0,12-24,21-53,21c-28,0-52-9-52-21C23,110,47,100,75,100z"/>
			
				<linearGradient id="SVGID_11_" gradientUnits="userSpaceOnUse" x1="75.5" y1="759.4399" x2="75.5" y2="733.29" gradientTransform="matrix(1 0 0 1 0 -652.5)">
				<stop  offset="0" style="stop-color:#D4E2E2"/>
				<stop  offset="1" style="stop-color:#E2E2E2"/>
			</linearGradient>
			<path class="st17" d="M75,101c28,0,51,9,51,20s-23,21-51,21c-27,0-50-10-50-21S48,101,75,101z"/>
			
				<linearGradient id="SVGID_12_" gradientUnits="userSpaceOnUse" x1="75.5" y1="760.01" x2="75.5" y2="734.8799" gradientTransform="matrix(1 0 0 1 0 -652.5)">
				<stop  offset="0" style="stop-color:#D5E2E2"/>
				<stop  offset="1" style="stop-color:#E2E2E2"/>
			</linearGradient>
			<path class="st18" d="M75,102c27,0,49,9,49,19c0,11-22,20-49,20c-26,0-48-9-48-20C27,111,49,102,75,102z"/>
			
				<linearGradient id="SVGID_13_" gradientUnits="userSpaceOnUse" x1="75.5" y1="760.5701" x2="75.5" y2="736.47" gradientTransform="matrix(1 0 0 1 0 -652.5)">
				<stop  offset="0" style="stop-color:#D6E2E2"/>
				<stop  offset="1" style="stop-color:#E2E2E2"/>
			</linearGradient>
			<path class="st19" d="M75,103c26,0,47,8,47,18c0,11-21,19-47,19c-25,0-46-8-46-19C29,111,50,103,75,103z"/>
			
				<linearGradient id="SVGID_14_" gradientUnits="userSpaceOnUse" x1="75.5" y1="761.1399" x2="75.5" y2="738.0701" gradientTransform="matrix(1 0 0 1 0 -652.5)">
				<stop  offset="0" style="stop-color:#D7E2E2"/>
				<stop  offset="1" style="stop-color:#E2E2E2"/>
			</linearGradient>
			<path class="st20" d="M75,103c25,0,45,8,45,18s-20,18-45,18c-24,0-44-8-44-18S51,103,75,103z"/>
			
				<linearGradient id="SVGID_15_" gradientUnits="userSpaceOnUse" x1="75.5" y1="761.7" x2="75.5" y2="739.6599" gradientTransform="matrix(1 0 0 1 0 -652.5)">
				<stop  offset="0" style="stop-color:#D8E2E2"/>
				<stop  offset="1" style="stop-color:#E2E2E2"/>
			</linearGradient>
			<path class="st21" d="M75,104c24,0,43,8,43,17c0,10-19,17-43,17c-23,0-42-7-42-17C33,112,52,104,75,104z"/>
			
				<linearGradient id="SVGID_16_" gradientUnits="userSpaceOnUse" x1="75.5" y1="762.26" x2="75.5" y2="741.25" gradientTransform="matrix(1 0 0 1 0 -652.5)">
				<stop  offset="0" style="stop-color:#D9E2E2"/>
				<stop  offset="1" style="stop-color:#E2E2E2"/>
			</linearGradient>
			<path class="st22" d="M75,105c23,0,41,7,41,16s-18,17-41,17c-22,0-40-8-40-17S53,105,75,105z"/>
			
				<linearGradient id="SVGID_17_" gradientUnits="userSpaceOnUse" x1="75.5" y1="762.8301" x2="75.5" y2="742.8401" gradientTransform="matrix(1 0 0 1 0 -652.5)">
				<stop  offset="0" style="stop-color:#DAE2E2"/>
				<stop  offset="1" style="stop-color:#E2E2E2"/>
			</linearGradient>
			<path class="st23" d="M75,106c22,0,39,7,39,15c0,9-17,16-39,16c-21,0-38-7-38-16C37,113,54,106,75,106z"/>
			
				<linearGradient id="SVGID_18_" gradientUnits="userSpaceOnUse" x1="75.5" y1="763.3899" x2="75.5" y2="744.4399" gradientTransform="matrix(1 0 0 1 0 -652.5)">
				<stop  offset="0" style="stop-color:#DBE2E2"/>
				<stop  offset="1" style="stop-color:#E2E2E2"/>
			</linearGradient>
			<path class="st24" d="M75,107c21,0,37,6,37,14s-16,15-37,15c-20,0-36-7-36-15S55,107,75,107z"/>
			
				<linearGradient id="SVGID_19_" gradientUnits="userSpaceOnUse" x1="75.5" y1="763.96" x2="75.5" y2="746.03" gradientTransform="matrix(1 0 0 1 0 -652.5)">
				<stop  offset="0" style="stop-color:#DCE2E2"/>
				<stop  offset="1" style="stop-color:#E2E2E2"/>
			</linearGradient>
			<path class="st25" d="M75,107c19,0,35,7,35,14c0,8-16,14-35,14s-34-6-34-14C41,114,56,107,75,107z"/>
			
				<linearGradient id="SVGID_20_" gradientUnits="userSpaceOnUse" x1="75.5" y1="764.52" x2="75.5" y2="747.6201" gradientTransform="matrix(1 0 0 1 0 -652.5)">
				<stop  offset="0" style="stop-color:#DDE2E2"/>
				<stop  offset="1" style="stop-color:#E2E2E2"/>
			</linearGradient>
			<path class="st26" d="M75,108c18,0,33,6,33,13c0,8-15,13-33,13s-32-5-32-13C43,114,57,108,75,108z"/>
			
				<linearGradient id="SVGID_21_" gradientUnits="userSpaceOnUse" x1="75.5" y1="765.0901" x2="75.5" y2="749.22" gradientTransform="matrix(1 0 0 1 0 -652.5)">
				<stop  offset="0" style="stop-color:#DDE2E2"/>
				<stop  offset="1" style="stop-color:#E2E2E2"/>
			</linearGradient>
			<path class="st27" d="M75,109c17,0,31,6,31,12c0,7-14,13-31,13c-16,0-30-6-30-13C45,115,59,109,75,109z"/>
			
				<linearGradient id="SVGID_22_" gradientUnits="userSpaceOnUse" x1="75.5" y1="765.6499" x2="75.5" y2="750.8101" gradientTransform="matrix(1 0 0 1 0 -652.5)">
				<stop  offset="0" style="stop-color:#DEE2E2"/>
				<stop  offset="1" style="stop-color:#E2E2E2"/>
			</linearGradient>
			<path class="st28" d="M75,110c16,0,29,5,29,11c0,7-13,12-29,12c-15,0-28-5-28-12C47,115,60,110,75,110z"/>
			
				<linearGradient id="SVGID_23_" gradientUnits="userSpaceOnUse" x1="75.5" y1="766.22" x2="75.5" y2="752.3999" gradientTransform="matrix(1 0 0 1 0 -652.5)">
				<stop  offset="0" style="stop-color:#DFE2E2"/>
				<stop  offset="1" style="stop-color:#E2E2E2"/>
			</linearGradient>
			<path class="st29" d="M75,111c15,0,27,4,27,10s-12,11-27,11c-14,0-26-5-26-11S61,111,75,111z"/>
			
				<linearGradient id="SVGID_24_" gradientUnits="userSpaceOnUse" x1="75.5" y1="766.78" x2="75.5" y2="753.99" gradientTransform="matrix(1 0 0 1 0 -652.5)">
				<stop  offset="0" style="stop-color:#E0E2E2"/>
				<stop  offset="1" style="stop-color:#E2E2E2"/>
			</linearGradient>
			<path class="st30" d="M75,111c14,0,25,5,25,10c0,6-11,10-25,10c-13,0-24-4-24-10C51,116,62,111,75,111z"/>
			
				<linearGradient id="SVGID_25_" gradientUnits="userSpaceOnUse" x1="75.5" y1="767.3501" x2="75.5" y2="755.5801" gradientTransform="matrix(1 0 0 1 0 -652.5)">
				<stop  offset="0" style="stop-color:#E1E2E2"/>
				<stop  offset="1" style="stop-color:#E2E2E2"/>
			</linearGradient>
			<path class="st31" d="M75,112c13,0,23,4,23,9s-10,9-23,9c-12,0-22-4-22-9S63,112,75,112z"/>
			<ellipse class="st32" cx="75" cy="121" rx="21" ry="8"/>
		</g>
	</g>
	<path class="st33" d="M45,17h61c12.5-0.2,22.8,9.8,23,22.3c0,0.2,0,0.5,0,0.7v61c0.2,12.5-9.8,22.8-22.3,23c-0.2,0-0.5,0-0.7,0H45
		c-12.5,0.2-22.8-9.8-23-22.3c0-0.2,0-0.5,0-0.7V40c-0.2-12.5,9.8-22.8,22.3-23C44.5,17,44.8,17,45,17z"/>
	<polygon class="st6" points="19,45 22,40 23,44 28,44 37,40 30,46 23,48 22,52 19,48 14,48 	"/>
	<path class="st34" d="M46,19h23c-7.4,5.6-14.1,11.9-20,19c-6-4-12-8-19-12C34,22,40,19,46,19z M73,19h32c12.1,0.1,21.9,9.9,22,22
		v14c-16,0-34,3-53,7c-6.2-7.2-12.8-13.8-20-20c-1.1-1.2-2.5-2.3-4-3C57,32,64,25,73,19z M72,62c-3,1-7,2-10,3c-13,4-25,8-36,13
		c5.8-12.9,13.2-25,22-36l1-1c1.1,1.2,2.5,2.3,4,3C59,50,66,56,72,62z M24,76V41c0.1-5.1,1.9-10,5-14c7,4,13,8,18,13l0,0
		C37,51,30,63,24,76z"/>
	<polygon class="st35" points="89,128 105,124 97,120 83,122 73,125 	"/>
	<polygon class="st35" points="19,44 22,39 23,43 28,43 37,40 30,45 23,47 22,51 19,47 14,48 	"/>
	<polygon class="st36" points="0,88 3,88 3,102 0,100 	"/>
	<path class="st36" d="M8,48c12,0,22,11,22,23c-0.1,12.1-9.9,21.9-22,22c-3,0-6,0-8-1V50C2.5,48.8,5.2,48.1,8,48z"/>
	<path class="st37" d="M8,45c12.1,0.1,21.9,9.9,22,22c0,13-10,23-22,23c-2.8-0.1-5.5-0.8-8-2V48l4-3H8z"/>
	<path class="st38" d="M8,45c12.1,0.1,21.9,9.9,22,22c0,13-10,23-22,23c-2.8-0.1-5.5-0.8-8-2l0,0c2,1,5,1,8,1c12,0,22-9,22-22
		c0-12-10-21-22-21H4l-4,3v-1l4-3H8z"/>
	<path class="st38" d="M5,90H4V45h1V90z"/>
	<polygon class="st39" points="0,88 0,86 0,48 4,45 4,90 0,93 	"/>
	<polygon class="st36" points="3,91 1,96 5,93 	"/>
	<polygon class="st38" points="0,92 0,93 4,90 4,89 	"/>
	<polygon class="st38" points="0,48 0,49 4,46 4,45 	"/>
	<polygon class="st36" points="151,88 148,88 148,102 151,100 	"/>
	<path class="st36" d="M143,48c-12.6,0.1-22.9,10.4-23,23c0,12,10,22,23,22c2.7,0.2,5.4-0.2,8-1V50C148,49,146,48,143,48z"/>
	<path class="st37" d="M143,45c-13,0-23,10-23,22c-0.2,12.5,9.8,22.8,22.3,23c0.2,0,0.5,0,0.7,0c3,0,5-1,8-2V48l-4-3H143z"/>
	<path class="st38" d="M143,45c-13,0-23,10-23,22c-0.2,12.5,9.8,22.8,22.3,23c0.2,0,0.5,0,0.7,0c3,0,5-1,8-2l0,0
		c-2.6,0.8-5.3,1.2-8,1c-12,0-22-9-22-22c0-12,10-21,22-21h4l4,3v-1l-4-3H143z"/>
	<path class="st38" d="M146,90h1V45h-1V90z"/>
	<polygon class="st39" points="151,88 151,86 151,48 147,45 147,90 151,93 	"/>
	<polygon class="st36" points="148,91 149,96 146,93 	"/>
	<polygon class="st38" points="151,92 151,93 147,90 147,89 	"/>
	<polygon class="st38" points="151,48 151,49 147,46 147,45 	"/>
	<path class="st6" d="M66,90c0,1,0,1,1,1c7,3,14,2,21-3c6.8-6,9.1-15.5,6-24l5,1c4,0,5,0,5-4v-2c6,13,2,28-9,37c-11,10-26,10-37,3
		c-1-1-1-1-2,0l-4,3c-1,1-2,1-2,0V85c0-2,1-2,3-2l15,3c2,0,2,1,1,2L66,90z M85,54l-1-1c-7-2-15-2-21,4c-7,5-10,16-6,24l-5-1
		c-4-1-5,0-5,4v2c-6-13-2-29,9-38c10.6-8.6,25.5-9.4,37-2c1,0,1,1,2,0l4-4c1,0,1,0,1,1l1,16c0,2-1,3-3,2l-16-3c-1,0-1-1,0-2L85,54z"
		/>
	<path class="st40" d="M66,86l1,1c7,2,15,1,21-4s9-12,7-20h-1v-4h3v1h2c4,1,5,0,5-4v-2c6,13,2,29-9,38c-10.6,8.6-25.5,9.4-37,2
		c-1,0-1-1-2,0l-4,4c-1,0-2,0-2-1V81c0-2,1-3,3-2l15,3c1,0,2,0,1,1v3H66z M89,55v2h-8v-4l1-1l3-2c0-1,0-1-1-1c-7-3.1-15.1-1.9-21,3
		c-7,6-10,16-6,24v4l-5-5c-4,0-5,0-5,4v2c-6-13-2-28,9-37c11-10,26-10,37-3c1,1,1,1,2,0l4-3c1-1,1-1,1,0l1,17c0,2-1,2-3,2L89,55z"/>
	
		<linearGradient id="SVGID_26_" gradientUnits="userSpaceOnUse" x1="75.4972" y1="701.9802" x2="75.5072" y2="780.8302" gradientTransform="matrix(1 0 0 1 0 -652.5)">
		<stop  offset="0" style="stop-color:#859696"/>
		<stop  offset="1" style="stop-color:#B5BBBB"/>
	</linearGradient>
	<path class="st41" d="M66,89c0,1,0,1,1,1c7,3,14,2,21-3c6.8-6,9.1-15.5,6-24l5,1c4,0,5,0,5-4v-2c6,13,2,28-9,37c-11,10-26,10-37,3
		c-1-1-1-1-2,0l-4,3c-1,1-2,1-2,0V84c0-2,1-2,3-2l15,3c2,0,2,1,1,2L66,89z M85,53l-1-1c-7-2-15-2-21,4c-7,5-10,15-6,24l-5-1
		c-4-1-5,0-5,4v2c-6-13-2-29,9-38s26-10,37-2h2l4-4c1,0,1,0,1,1l1,16c0,2-1,3-3,2l-16-3c-1,0-1-1,0-2L85,53z"/>
</g>
</svg>
