<?xml version="1.0" encoding="utf-8"?>
<!-- Generator: Adobe Illustrator 24.0.3, SVG Export Plug-In . SVG Version: 6.00 Build 0)  -->
<!DOCTYPE svg PUBLIC "-//W3C//DTD SVG 1.1//EN" "http://www.w3.org/Graphics/SVG/1.1/DTD/svg11.dtd" [
	<!ENTITY ns_extend "http://ns.adobe.com/Extensibility/1.0/">
	<!ENTITY ns_ai "http://ns.adobe.com/AdobeIllustrator/10.0/">
	<!ENTITY ns_graphs "http://ns.adobe.com/Graphs/1.0/">
	<!ENTITY ns_vars "http://ns.adobe.com/Variables/1.0/">
	<!ENTITY ns_imrep "http://ns.adobe.com/ImageReplacement/1.0/">
	<!ENTITY ns_sfw "http://ns.adobe.com/SaveForWeb/1.0/">
	<!ENTITY ns_custom "http://ns.adobe.com/GenericCustomNamespace/1.0/">
	<!ENTITY ns_adobe_xpath "http://ns.adobe.com/XPath/1.0/">
]>
<svg version="1.1" id="Слой_1" xmlns:x="&ns_extend;" xmlns:i="&ns_ai;" xmlns:graph="&ns_graphs;"
	 xmlns="http://www.w3.org/2000/svg" xmlns:xlink="http://www.w3.org/1999/xlink" x="0px" y="0px" viewBox="0 0 151 153"
	 style="enable-background:new 0 0 151 153;" xml:space="preserve">
<style type="text/css">
	.st0{fill:#53381D;}
	.st1{fill:#996633;}
	.st2{fill:#CA9560;}
	.st3{fill:#AF753B;}
	.st4{fill:#647272;}
	.st5{fill:url(#SVGID_1_);}
	.st6{fill-rule:evenodd;clip-rule:evenodd;fill:#FFFFFF;}
	.st7{fill-rule:evenodd;clip-rule:evenodd;fill:#FFFFFF;fill-opacity:0.2;}
	.st8{fill:#FFFFFF;}
	.st9{fill-rule:evenodd;clip-rule:evenodd;fill:url(#SVGID_2_);}
	.st10{clip-path:url(#SVGID_4_);}
	.st11{fill-rule:evenodd;clip-rule:evenodd;fill:url(#SVGID_5_);fill-opacity:0;}
	.st12{fill-rule:evenodd;clip-rule:evenodd;fill:url(#SVGID_6_);fill-opacity:4.706000e-02;}
	.st13{fill-rule:evenodd;clip-rule:evenodd;fill:url(#SVGID_7_);fill-opacity:9.412000e-02;}
	.st14{fill-rule:evenodd;clip-rule:evenodd;fill:url(#SVGID_8_);fill-opacity:0.1412;}
	.st15{fill-rule:evenodd;clip-rule:evenodd;fill:url(#SVGID_9_);fill-opacity:0.1922;}
	.st16{fill-rule:evenodd;clip-rule:evenodd;fill:url(#SVGID_10_);fill-opacity:0.2392;}
	.st17{fill-rule:evenodd;clip-rule:evenodd;fill:url(#SVGID_11_);fill-opacity:0.2863;}
	.st18{fill-rule:evenodd;clip-rule:evenodd;fill:url(#SVGID_12_);fill-opacity:0.3333;}
	.st19{fill-rule:evenodd;clip-rule:evenodd;fill:url(#SVGID_13_);fill-opacity:0.3804;}
	.st20{fill-rule:evenodd;clip-rule:evenodd;fill:url(#SVGID_14_);fill-opacity:0.4275;}
	.st21{fill-rule:evenodd;clip-rule:evenodd;fill:url(#SVGID_15_);fill-opacity:0.4745;}
	.st22{fill-rule:evenodd;clip-rule:evenodd;fill:url(#SVGID_16_);fill-opacity:0.5255;}
	.st23{fill-rule:evenodd;clip-rule:evenodd;fill:url(#SVGID_17_);fill-opacity:0.5725;}
	.st24{fill-rule:evenodd;clip-rule:evenodd;fill:url(#SVGID_18_);fill-opacity:0.6196;}
	.st25{fill-rule:evenodd;clip-rule:evenodd;fill:url(#SVGID_19_);fill-opacity:0.6667;}
	.st26{fill-rule:evenodd;clip-rule:evenodd;fill:url(#SVGID_20_);fill-opacity:0.7137;}
	.st27{fill-rule:evenodd;clip-rule:evenodd;fill:url(#SVGID_21_);fill-opacity:0.7608;}
	.st28{fill-rule:evenodd;clip-rule:evenodd;fill:url(#SVGID_22_);fill-opacity:0.8078;}
	.st29{fill-rule:evenodd;clip-rule:evenodd;fill:url(#SVGID_23_);fill-opacity:0.8588;}
	.st30{fill-rule:evenodd;clip-rule:evenodd;fill:url(#SVGID_24_);fill-opacity:0.9059;}
	.st31{fill-rule:evenodd;clip-rule:evenodd;fill:url(#SVGID_25_);fill-opacity:0.9529;}
	.st32{fill:#E2E2E2;}
	.st33{fill:none;}
	.st34{fill-rule:evenodd;clip-rule:evenodd;fill:#FFFFFF;fill-opacity:0.302;}
	.st35{fill-rule:evenodd;clip-rule:evenodd;fill:#788A8A;}
	.st36{fill-rule:evenodd;clip-rule:evenodd;fill:#53381D;}
	.st37{fill-rule:evenodd;clip-rule:evenodd;fill:#996633;}
	.st38{fill-rule:evenodd;clip-rule:evenodd;fill:#CA9560;}
	.st39{fill-rule:evenodd;clip-rule:evenodd;fill:#AF753B;}
	.st40{fill-rule:evenodd;clip-rule:evenodd;fill:#647272;}
	.st41{fill-rule:evenodd;clip-rule:evenodd;fill:url(#SVGID_26_);}
</style>
<metadata>
	<sfw  xmlns="&ns_sfw;">
		<slices></slices>
		<sliceSourceBounds  bottomLeftOrigin="true" height="153" width="151" x="0" y="0"></sliceSourceBounds>
	</sfw>
</metadata>
<title>ButtonSVG</title>
<g id="_905911280">
	<path class="st0" d="M34,7h84c17.1,0,31,13.9,31,31v84c0,17.1-13.9,31-31,31H34c-17.1,0-31-13.9-31-31V38C3,20.9,16.9,7,34,7z"/>
	<path class="st1" d="M34,0h84c17.1,0,31,13.9,31,31v84c0,17.1-13.9,31-31,31H34c-17.1,0-31-13.9-31-31V31C3,13.9,16.9,0,34,0z"/>
	<path class="st2" d="M35,3h81c16.6,0,30,13.4,30,30v81c0,16.6-13.4,30-30,30H35c-16.6,0-30-13.4-30-30V33C5,16.4,18.4,3,35,3z"/>
	<path class="st3" d="M36,3h80c16.6,0,30,13.4,30,30v80c0,16.6-13.4,30-30,30H36c-16.6,0-30-13.4-30-30V33C6,16.4,19.4,3,36,3z"/>
	<path class="st0" d="M38,7h75c15.5,0,28,12.5,28,28v75c0,15.5-12.5,28-28,28H38c-15.5,0-28-12.5-28-28V35C10,19.5,22.5,7,38,7z"/>
	<path class="st4" d="M39,10h73c14.9,0,27,12.1,27,27v73c0,14.9-12.1,27-27,27H39c-14.9,0-27-12.1-27-27V37C12,22.1,24.1,10,39,10z"
		/>
	
		<radialGradient id="SVGID_1_" cx="75.5" cy="-988.4" r="46.9646" gradientTransform="matrix(1 0 0 1 0 1061.5)" gradientUnits="userSpaceOnUse">
		<stop  offset="0" style="stop-color:#CFE2E2"/>
		<stop  offset="0.851" style="stop-color:#A3B6B6"/>
		<stop  offset="1" style="stop-color:#788A8A"/>
	</radialGradient>
	<path class="st5" d="M40,11h71c14.4,0,26,11.6,26,26v71c0,14.4-11.6,26-26,26H40c-14.4,0-26-11.6-26-26V37C14,22.6,25.6,11,40,11z"
		/>
	<polygon class="st6" points="89,129 105,125 97,121 83,123 72,125 	"/>
	<path class="st7" d="M111,12c13,0,24,11,25,24L75,73L18,24c-2,4-4,9-4,14l61,35L24,18c4-4,10-6,16-6l35,61L111,12z"/>
	<path class="st8" d="M45,17h61c7,0,13,2,17,7c4,4,7,10,7,16v62c0,6-3,12-7,16c-4,5-10,7-17,7H45c-7,0-13-2-17-7c-4-4-7-10-7-16V40
		c0-6,3-12,7-16C32,19,38,17,45,17z M106,18H45c-6,0-12,3-16,7c-4,4-6.2,9.4-6,15v62c-0.2,5.6,2,11,6,15c4,4,10,7,16,7h61
		c6,0,12-3,16-7c4-4,6.2-9.4,6-15V40c0.2-5.6-2-11-6-15C118,21,112,18,106,18z"/>
	
		<radialGradient id="SVGID_2_" cx="75.5" cy="-990.5098" r="53.432" gradientTransform="matrix(1 0 0 1 0 1061.4801)" gradientUnits="userSpaceOnUse">
		<stop  offset="0" style="stop-color:#E2E2E2"/>
		<stop  offset="1" style="stop-color:#CFE2E2"/>
	</radialGradient>
	<path class="st9" d="M45,18h61c13,0,23,10,23,22v62c0,12-10,22-23,22H45c-13,0-23-10-23-22V40C22,28,32,18,45,18z"/>
	<g>
		<defs>
			<path id="SVGID_3_" d="M45,18h61c13,0,23,10,23,22v62c0,12-10,22-23,22H45c-13,0-23-10-23-22V40C22,28,32,18,45,18z"/>
		</defs>
		<clipPath id="SVGID_4_">
			<use xlink:href="#SVGID_3_"  style="overflow:visible;"/>
		</clipPath>
		<g class="st10">
			
				<linearGradient id="SVGID_5_" gradientUnits="userSpaceOnUse" x1="-1558.1" y1="-868.5344" x2="-1558.1" y2="-868.6799" gradientTransform="matrix(125 0 0 50 194838 43531)">
				<stop  offset="0" style="stop-color:#CFE2E2"/>
				<stop  offset="1" style="stop-color:#E2E2E2"/>
			</linearGradient>
			<path class="st11" d="M75,97c35,0,63,11,63,25s-28,25-63,25c-34,0-62-11-62-25S41,97,75,97z"/>
			
				<linearGradient id="SVGID_6_" gradientUnits="userSpaceOnUse" x1="75.5" y1="-956.91" x2="75.5" y2="-988.2" gradientTransform="matrix(1 0 0 1 0 1061.5)">
				<stop  offset="0" style="stop-color:#D0E2E2"/>
				<stop  offset="1" style="stop-color:#E2E2E2"/>
			</linearGradient>
			<path class="st12" d="M75,98c34,0,61,10,61,24c0,13-27,24-61,24c-33,0-60-11-60-24C15,108,42,98,75,98z"/>
			
				<linearGradient id="SVGID_7_" gradientUnits="userSpaceOnUse" x1="-1558.0726" y1="-870.5247" x2="-1558.0726" y2="-870.6702" gradientTransform="matrix(117 0 0 47 182370 41019.5)">
				<stop  offset="0" style="stop-color:#D1E2E2"/>
				<stop  offset="1" style="stop-color:#E2E2E2"/>
			</linearGradient>
			<path class="st13" d="M75,98c33,0,59,11,59,24s-26,23-59,23c-32,0-58-10-58-23S43,98,75,98z"/>
			
				<linearGradient id="SVGID_8_" gradientUnits="userSpaceOnUse" x1="-1558.0575" y1="-871.999" x2="-1558.0575" y2="-872.1445" gradientTransform="matrix(113 0 0 45 176136 39345.5)">
				<stop  offset="0" style="stop-color:#D2E2E2"/>
				<stop  offset="1" style="stop-color:#E2E2E2"/>
			</linearGradient>
			<path class="st14" d="M75,99c31,0,57,10,57,23c0,12-26,22-57,22s-56-10-56-22C19,109,44,99,75,99z"/>
			
				<linearGradient id="SVGID_9_" gradientUnits="userSpaceOnUse" x1="75.5" y1="-955.21" x2="75.5" y2="-983.42" gradientTransform="matrix(1 0 0 1 0 1061.5)">
				<stop  offset="0" style="stop-color:#D3E2E2"/>
				<stop  offset="1" style="stop-color:#E2E2E2"/>
			</linearGradient>
			<path class="st15" d="M75,100c30,0,55,10,55,22s-25,22-55,22s-54-10-54-22S45,100,75,100z"/>
			
				<linearGradient id="SVGID_10_" gradientUnits="userSpaceOnUse" x1="75.5" y1="-954.65" x2="75.5" y2="-981.83" gradientTransform="matrix(1 0 0 1 0 1061.5)">
				<stop  offset="0" style="stop-color:#D4E2E2"/>
				<stop  offset="1" style="stop-color:#E2E2E2"/>
			</linearGradient>
			<path class="st16" d="M75,101c29,0,53,9,53,21c0,11-24,21-53,21c-28,0-52-10-52-21C23,110,47,101,75,101z"/>
			
				<linearGradient id="SVGID_11_" gradientUnits="userSpaceOnUse" x1="-1558.005" y1="-876.3295" x2="-1558.005" y2="-876.475" gradientTransform="matrix(101 0 0 40 157434 35161)">
				<stop  offset="0" style="stop-color:#D4E2E2"/>
				<stop  offset="1" style="stop-color:#E2E2E2"/>
			</linearGradient>
			<path class="st17" d="M75,102c28,0,51,9,51,20s-23,20-51,20c-27,0-50-9-50-20S48,102,75,102z"/>
			
				<linearGradient id="SVGID_12_" gradientUnits="userSpaceOnUse" x1="-1557.9845" y1="-877.3288" x2="-1557.9845" y2="-877.4744" gradientTransform="matrix(97 0 0 39 151200 34323.5)">
				<stop  offset="0" style="stop-color:#D5E2E2"/>
				<stop  offset="1" style="stop-color:#E2E2E2"/>
			</linearGradient>
			<path class="st18" d="M75,102c27,0,49,9,49,20s-22,19-49,19c-26,0-48-8-48-19S49,102,75,102z"/>
			
				<linearGradient id="SVGID_13_" gradientUnits="userSpaceOnUse" x1="75.5" y1="-952.95" x2="75.5" y2="-977.05" gradientTransform="matrix(1 0 0 1 0 1061.5)">
				<stop  offset="0" style="stop-color:#D6E2E2"/>
				<stop  offset="1" style="stop-color:#E2E2E2"/>
			</linearGradient>
			<path class="st19" d="M75,103c26,0,47,8,47,19c0,10-21,18-47,18c-25,0-46-8-46-18C29,111,50,103,75,103z"/>
			
				<linearGradient id="SVGID_14_" gradientUnits="userSpaceOnUse" x1="75.5" y1="-952.39" x2="75.5" y2="-975.46" gradientTransform="matrix(1 0 0 1 0 1061.5)">
				<stop  offset="0" style="stop-color:#D7E2E2"/>
				<stop  offset="1" style="stop-color:#E2E2E2"/>
			</linearGradient>
			<path class="st20" d="M75,104c25,0,45,8,45,18s-20,18-45,18c-24,0-44-8-44-18S51,104,75,104z"/>
			
				<linearGradient id="SVGID_15_" gradientUnits="userSpaceOnUse" x1="75.5" y1="-951.83" x2="75.5" y2="-973.87" gradientTransform="matrix(1 0 0 1 0 1061.5)">
				<stop  offset="0" style="stop-color:#D8E2E2"/>
				<stop  offset="1" style="stop-color:#E2E2E2"/>
			</linearGradient>
			<path class="st21" d="M75,105c24,0,43,7,43,17c0,9-19,17-43,17c-23,0-42-8-42-17C33,112,52,105,75,105z"/>
			
				<linearGradient id="SVGID_16_" gradientUnits="userSpaceOnUse" x1="75.5" y1="-951.26" x2="75.5" y2="-972.27" gradientTransform="matrix(1 0 0 1 0 1061.5)">
				<stop  offset="0" style="stop-color:#D9E2E2"/>
				<stop  offset="1" style="stop-color:#E2E2E2"/>
			</linearGradient>
			<path class="st22" d="M75,106c23,0,41,7,41,16s-18,16-41,16c-22,0-40-7-40-16S53,106,75,106z"/>
			
				<linearGradient id="SVGID_17_" gradientUnits="userSpaceOnUse" x1="75.5" y1="-950.7" x2="75.5" y2="-970.6801" gradientTransform="matrix(1 0 0 1 0 1061.5)">
				<stop  offset="0" style="stop-color:#DAE2E2"/>
				<stop  offset="1" style="stop-color:#E2E2E2"/>
			</linearGradient>
			<path class="st23" d="M75,106c22,0,39,7,39,16c0,8-17,15-39,15c-21,0-38-7-38-15C37,113,54,106,75,106z"/>
			
				<linearGradient id="SVGID_18_" gradientUnits="userSpaceOnUse" x1="75.5" y1="-950.13" x2="75.5" y2="-969.09" gradientTransform="matrix(1 0 0 1 0 1061.5)">
				<stop  offset="0" style="stop-color:#DBE2E2"/>
				<stop  offset="1" style="stop-color:#E2E2E2"/>
			</linearGradient>
			<path class="st24" d="M75,107c21,0,37,7,37,15s-16,14-37,14c-20,0-36-6-36-14S55,107,75,107z"/>
			
				<linearGradient id="SVGID_19_" gradientUnits="userSpaceOnUse" x1="75.5" y1="-949.5699" x2="75.5" y2="-967.5" gradientTransform="matrix(1 0 0 1 0 1061.5)">
				<stop  offset="0" style="stop-color:#DCE2E2"/>
				<stop  offset="1" style="stop-color:#E2E2E2"/>
			</linearGradient>
			<path class="st25" d="M75,108c19,0,35,6,35,14c0,7-16,14-35,14s-34-7-34-14C41,114,56,108,75,108z"/>
			
				<linearGradient id="SVGID_20_" gradientUnits="userSpaceOnUse" x1="75.5" y1="-949" x2="75.5" y2="-965.9" gradientTransform="matrix(1 0 0 1 0 1061.5)">
				<stop  offset="0" style="stop-color:#DDE2E2"/>
				<stop  offset="1" style="stop-color:#E2E2E2"/>
			</linearGradient>
			<path class="st26" d="M75,109c18,0,33,6,33,13s-15,13-33,13s-32-6-32-13S57,109,75,109z"/>
			
				<linearGradient id="SVGID_21_" gradientUnits="userSpaceOnUse" x1="75.5" y1="-948.4399" x2="75.5" y2="-964.3101" gradientTransform="matrix(1 0 0 1 0 1061.5)">
				<stop  offset="0" style="stop-color:#DDE2E2"/>
				<stop  offset="1" style="stop-color:#E2E2E2"/>
			</linearGradient>
			<path class="st27" d="M75,109c17,0,31,6,31,13s-14,12-31,12c-16,0-30-5-30-12S59,109,75,109z"/>
			
				<linearGradient id="SVGID_22_" gradientUnits="userSpaceOnUse" x1="75.5" y1="-947.87" x2="75.5" y2="-962.72" gradientTransform="matrix(1 0 0 1 0 1061.5)">
				<stop  offset="0" style="stop-color:#DEE2E2"/>
				<stop  offset="1" style="stop-color:#E2E2E2"/>
			</linearGradient>
			<path class="st28" d="M75,110c16,0,29,5,29,12c0,6-13,11-29,11c-15,0-28-5-28-11C47,115,60,110,75,110z"/>
			
				<linearGradient id="SVGID_23_" gradientUnits="userSpaceOnUse" x1="75.5" y1="-947.3101" x2="75.5" y2="-961.13" gradientTransform="matrix(1 0 0 1 0 1061.5)">
				<stop  offset="0" style="stop-color:#DFE2E2"/>
				<stop  offset="1" style="stop-color:#E2E2E2"/>
			</linearGradient>
			<path class="st29" d="M75,111c15,0,27,5,27,11s-12,10-27,10c-14,0-26-4-26-10S61,111,75,111z"/>
			
				<linearGradient id="SVGID_24_" gradientUnits="userSpaceOnUse" x1="75.5" y1="-946.75" x2="75.5" y2="-959.54" gradientTransform="matrix(1 0 0 1 0 1061.5)">
				<stop  offset="0" style="stop-color:#E0E2E2"/>
				<stop  offset="1" style="stop-color:#E2E2E2"/>
			</linearGradient>
			<path class="st30" d="M75,112c14,0,25,4,25,10c0,5-11,10-25,10c-13,0-24-5-24-10C51,116,62,112,75,112z"/>
			
				<linearGradient id="SVGID_25_" gradientUnits="userSpaceOnUse" x1="75.5" y1="-946.1801" x2="75.5" y2="-957.9399" gradientTransform="matrix(1 0 0 1 0 1061.5)">
				<stop  offset="0" style="stop-color:#E1E2E2"/>
				<stop  offset="1" style="stop-color:#E2E2E2"/>
			</linearGradient>
			<path class="st31" d="M75,113c13,0,23,4,23,9s-10,9-23,9c-12,0-22-4-22-9S63,113,75,113z"/>
			<ellipse class="st32" cx="75" cy="122" rx="21" ry="8"/>
		</g>
	</g>
	<path class="st33" d="M45,18h61c13,0,23,10,23,22v62c0,12-10,22-23,22H45c-13,0-23-10-23-22V40C22,28,32,18,45,18z"/>
	<polygon class="st6" points="19,45 22,41 23,45 28,45 37,41 30,47 23,48 22,53 19,48 14,49 	"/>
	<path class="st34" d="M46,20h23c-7.4,5.6-14.1,11.9-20,19c-5.9-4.9-12.3-9.2-19-13C34,22,40,20,46,20z M73,20h32
		c12.1,0.1,21.9,9.9,22,22v14c-17.8,0.2-35.6,2.2-53,6c-6-7-13-13-20-19c-1.1-1.2-2.5-2.3-4-3C57,33,64,26,73,20z M72,63
		c-3,1-7,2-10,3c-13,3-25,8-36,12c5.8-12.9,13.2-25,22-36l1-1c1.1,1.2,2.5,2.3,4,3C59,50,66,56,72,63z M24,77V42c0-6,2-10,5-14
		c6.3,3.5,12.3,7.5,18,12v1C37,52,30,64,24,77z"/>
	<polygon class="st35" points="89,128 105,124 97,120 83,122 73,125 	"/>
	<polygon class="st35" points="19,44 22,40 23,44 28,43 37,41 30,46 23,47 22,51 19,47 14,49 	"/>
	<polygon class="st36" points="0,89 3,89 3,103 0,101 	"/>
	<path class="st36" d="M8,49c12.1,0.1,21.9,9.9,22,22c0,13-10,23-22,23c-3,0-6-1-8-1V50C2,49,5,49,8,49z"/>
	<path class="st37" d="M8,45c12,0,22,10,22,23c-0.1,12.1-9.9,21.9-22,22c-3,0-6,0-8-1V49l4-3l0,0C5,46,7,45,8,45z"/>
	<path class="st38" d="M8,45c12,0,22,10,22,23c-0.1,12.1-9.9,21.9-22,22c-3,0-6,0-8-1v-1c2.5,1.2,5.2,1.9,8,2c12.2,0,22-9.8,22-22
		S20.2,46,8,46H4v1l-4,2l0,0l4-3l0,0C5,46,7,45,8,45z"/>
	<path class="st38" d="M5,90H4V46h1V90z"/>
	<polygon class="st39" points="0,89 0,87 0,49 4,46 4,90 0,93 	"/>
	<polygon class="st36" points="3,92 1,96 5,93 	"/>
	<polygon class="st38" points="0,92 0,93 4,90 4,89 	"/>
	<polygon class="st38" points="0,49 0,50 4,47 4,46 	"/>
	<polygon class="st36" points="151,89 148,89 148,103 151,101 	"/>
	<path class="st36" d="M143,49c-13,0-23,10-23,22c-0.2,12.5,9.8,22.8,22.3,23c0.2,0,0.5,0,0.7,0c3,0,5-1,8-1V50
		C148.4,49.2,145.7,48.8,143,49z"/>
	<path class="st37" d="M143,45c-12.5-0.2-22.8,9.8-23,22.3c0,0.2,0,0.5,0,0.7c0,12,10,22,23,22c2.7,0.2,5.4-0.2,8-1V49l-4-3l0,0
		C146,46,144,45,143,45z"/>
	<path class="st38" d="M143,45c-12.5-0.2-22.8,9.8-23,22.3c0,0.2,0,0.5,0,0.7c0,12,10,22,23,22c2.7,0.2,5.4-0.2,8-1v-1c-3,1-5,2-8,2
		c-12.2,0-22-9.8-22-22s9.8-22,22-22h4v1l4,2l0,0l-4-3l0,0C146,46,144,45,143,45z"/>
	<path class="st38" d="M146,90h1V46h-1V90z"/>
	<polygon class="st39" points="151,89 151,87 151,49 147,46 147,90 151,93 	"/>
	<polygon class="st36" points="148,92 149,96 146,93 	"/>
	<polygon class="st38" points="151,92 151,93 147,90 147,89 	"/>
	<polygon class="st38" points="151,49 151,50 147,47 147,46 	"/>
	<path class="st6" d="M58,60h38c1.4-0.2,2.8,0.8,3,2.2c0,0.2,0,0.5,0,0.8v42c-0.1,1.6-1.4,2.9-3,3H56c-1.6-0.1-2.9-1.4-3-3V63
		c0-2,1-3,2-3h-1l-2-8c-1-1,0-1,1-2l13-4c0-3.7,1.9-7.1,5-9c4-1,7,1,9,4l14-5c1,0,1,1,2,1l2,8c-0.1,0.8-0.4,1.5-1,2L58,60z M70,45
		l7-3c-1.4-1.3-3.1-2-5-2C70,41,69,43,70,45z M65,66L65,66c1.1,0.1,1.9,0.9,2,2v29c0,2-1,3-2,3l0,0c-1.6-0.1-2.9-1.4-3-3V68
		C62,67,64,66,65,66z M76,66L76,66c1.1,0.1,1.9,0.9,2,2v29c0,2-1,3-2,3l0,0c-1.4,0.2-2.8-0.8-3-2.2c0-0.2,0-0.5,0-0.8V68
		C73,67,74,66,76,66z M87,66L87,66c2,0,3,1,3,2v29c0.2,1.4-0.8,2.8-2.2,3c-0.2,0-0.5,0-0.8,0l0,0c-1,0-2-1-2-3V68
		C85.1,66.9,85.9,66.1,87,66z"/>
	<path class="st40" d="M58,54h38c1.4-0.2,2.8,0.8,3,2.2c0,0.2,0,0.5,0,0.8v42c0.2,1.4-0.8,2.8-2.2,3c-0.2,0-0.5,0-0.8,0H56
		c-1.4,0.2-2.8-0.8-3-2.2c0-0.2,0-0.5,0-0.8V57c0-1,1-2,2-3h-1l-1-4h-1v-4c-1,0,0-1,1-2l13-4c0-3.7,1.9-7.1,5-9c4-1,7,1,9,4l14-4
		c1-1,1,0,2,0l2,8v5h-6v-2L58,54z M74,37h-4v2L74,37z M65,60L65,60c1,0,2,1,2,3v28c0,2-1,3-2,3l0,0c-1.6-0.1-2.9-1.4-3-3V63
		C62.1,61.4,63.4,60.1,65,60z M76,60L76,60c1,0,2,1,2,3v28c0,2-1,3-2,3l0,0c-1.4,0.2-2.8-0.8-3-2.2c0-0.2,0-0.5,0-0.8V63
		c-0.2-1.4,0.8-2.8,2.2-3C75.5,60,75.8,60,76,60z M87,60L87,60c1.4-0.2,2.8,0.8,3,2.2c0,0.2,0,0.5,0,0.8v28c0.2,1.4-0.8,2.8-2.2,3
		c-0.2,0-0.5,0-0.8,0l0,0c-1,0-2-1-2-3V63C85,61,86,60,87,60z"/>
	
		<linearGradient id="SVGID_26_" gradientUnits="userSpaceOnUse" x1="75.3064" y1="-1026.58" x2="75.3064" y2="-935.39" gradientTransform="matrix(1 0 0 1 0 1061.5)">
		<stop  offset="0" style="stop-color:#859696"/>
		<stop  offset="1" style="stop-color:#B5BBBB"/>
	</linearGradient>
	<path class="st41" d="M58,58h38c1.4-0.2,2.8,0.8,3,2.2c0,0.2,0,0.5,0,0.8v42c0.2,1.4-0.8,2.8-2.2,3c-0.2,0-0.5,0-0.8,0H56
		c-1.4,0.2-2.8-0.8-3-2.2c0-0.2,0-0.5,0-0.8V61c0-1,1-2,2-3h-1l-2-8c-1,0,0-1,1-1l13-5c0-4,2-7,5-8c4-2,7,0,9,3l14-4c1-1,1,0,2,1
		l2,7c0,1,0,2-1,2L58,58z M70,43l7-3c-1.3-1.4-3.3-1.8-5-1C70,39,69,41,70,43z M65,64L65,64c1,0,2,1,2,3v29c-0.1,1.1-0.9,1.9-2,2
		l0,0c-1,0-3-1-3-2V67C62.1,65.4,63.4,64.1,65,64z M76,64L76,64c1,0,2,1,2,3v29c-0.1,1.1-0.9,1.9-2,2l0,0c-2,0-3-1-3-2V67
		c-0.2-1.4,0.8-2.8,2.2-3C75.5,64,75.8,64,76,64z M87,64L87,64c1.4-0.2,2.8,0.8,3,2.2c0,0.2,0,0.5,0,0.8v29c0,1-1,2-3,2l0,0
		c-1.1-0.1-1.9-0.9-2-2V67C85,65,86,64,87,64z"/>
</g>
</svg>
